<svg width="24" height="24" viewBox="0 0 24 24" fill="none" xmlns="http://www.w3.org/2000/svg">
<path d="M10.869 16.6327C10.811 16.5762 10.563 16.3629 10.359 16.1642C9.076 14.999 6.976 11.9596 6.335 10.3687C6.232 10.1271 6.014 9.51632 6 9.18997C6 8.87726 6.072 8.57916 6.218 8.2947C6.422 7.94009 6.743 7.65563 7.122 7.49976C7.385 7.39942 8.172 7.24355 8.186 7.24355C9.047 7.08768 10.446 7.00195 11.992 7.00195C13.465 7.00195 14.807 7.08768 15.681 7.2153C15.695 7.22991 16.673 7.38578 17.008 7.55626C17.62 7.86898 18 8.47979 18 9.13347V9.18997C17.985 9.61569 17.605 10.511 17.591 10.511C16.949 12.0161 14.952 14.9854 13.625 16.1788C13.625 16.1788 13.284 16.5149 13.071 16.661C12.765 16.8889 12.386 17.002 12.007 17.002C11.584 17.002 11.19 16.8743 10.869 16.6327Z" fill="#949494"/>
</svg>
