<svg width="20" height="20" viewBox="0 0 20 20" fill="none" xmlns="http://www.w3.org/2000/svg">
<path d="M9.0575 13.8606C9.00917 13.8135 8.8025 13.6357 8.6325 13.4701C7.56333 12.4992 5.81333 9.96631 5.27917 8.64061C5.19333 8.43928 5.01167 7.93027 5 7.65831C5 7.39771 5.06 7.1493 5.18167 6.91225C5.35167 6.61674 5.61917 6.37969 5.935 6.2498C6.15417 6.16618 6.81 6.03629 6.82167 6.03629C7.53917 5.9064 8.705 5.83496 9.99333 5.83496C11.2208 5.83496 12.3392 5.9064 13.0675 6.01275C13.0792 6.02493 13.8942 6.15482 14.1733 6.29689C14.6833 6.55748 15 7.06649 15 7.61122V7.65831C14.9875 8.01307 14.6708 8.75914 14.6592 8.75914C14.1242 10.0134 12.46 12.4878 11.3542 13.4823C11.3542 13.4823 11.07 13.7624 10.8925 13.8842C10.6375 14.0741 10.3217 14.1683 10.0058 14.1683C9.65333 14.1683 9.325 14.0619 9.0575 13.8606Z" fill="#D4D4D4"/>
</svg>
