<svg width="20" height="20" viewBox="0 0 20 20" fill="none" xmlns="http://www.w3.org/2000/svg">
<path d="M10.9425 6.1424C10.9908 6.18948 11.1975 6.36727 11.3675 6.53288C12.4367 7.50382 14.1867 10.0367 14.7208 11.3624C14.8067 11.5637 14.9883 12.0727 15 12.3447C15 12.6053 14.94 12.8537 14.8183 13.0908C14.6483 13.3863 14.3808 13.6233 14.065 13.7532C13.8458 13.8368 13.19 13.9667 13.1783 13.9667C12.4608 14.0966 11.295 14.168 10.0067 14.168C8.77917 14.168 7.66083 14.0966 6.9325 13.9903C6.92083 13.9781 6.10583 13.8482 5.82667 13.7061C5.31667 13.4455 5 12.9365 5 12.3918L5 12.3447C5.0125 11.9899 5.32917 11.2439 5.34083 11.2439C5.87583 9.98961 7.54 7.51518 8.64583 6.5207C8.64583 6.5207 8.93 6.24063 9.1075 6.11885C9.3625 5.92889 9.67833 5.83472 9.99417 5.83472C10.3467 5.83472 10.675 5.94107 10.9425 6.1424Z" fill="#414141"/>
</svg>
